<svg width="256" height="256" viewBox="0 0 256 256" xmlns="http://www.w3.org/2000/svg">
  <defs>
    <radialGradient id="a" cx="14%" cy="8%" r="85%">
      <stop offset="0" stop-color="#4cd7b0" stop-opacity=".55"/>
      <stop offset="60%" stop-color="#4cd7b0" stop-opacity="0"/>
    </radialGradient>
    <radialGradient id="b" cx="96%" cy="98%" r="85%">
      <stop offset="0" stop-color="#a855f7" stop-opacity=".5"/>
      <stop offset="62%" stop-color="#a855f7" stop-opacity="0"/>
    </radialGradient>
  </defs>
  <rect width="256" height="256" rx="56" fill="#0b0b11"/>
  <rect width="256" height="256" rx="56" fill="url(#a)"/>
  <rect width="256" height="256" rx="56" fill="url(#b)"/>
  <rect x="64" y="50" width="128" height="156" rx="16" fill="#15151d" stroke="rgba(255,255,255,.14)" stroke-width="2"/>
  <rect x="82" y="76" width="18" height="13" rx="3" fill="#4cd7b0"/>
  <rect x="106" y="77" width="54" height="11" rx="5" fill="#e9e9f2"/>
  <rect x="82" y="104" width="92" height="8" rx="4" fill="rgba(255,255,255,.30)"/>
  <rect x="82" y="122" width="74" height="8" rx="4" fill="rgba(255,255,255,.30)"/>
  <rect x="82" y="144" width="92" height="38" rx="7" fill="rgba(255,255,255,.05)" stroke="rgba(255,255,255,.10)" stroke-width="1.5"/>
  <rect x="90" y="153" width="30" height="7" rx="3.5" fill="#4cd7b0"/>
  <rect x="124" y="153" width="24" height="7" rx="3.5" fill="#a855f7"/>
  <rect x="90" y="167" width="48" height="7" rx="3.5" fill="rgba(255,255,255,.32)"/>
</svg>
